<?xml version="1.0" encoding="UTF-8" standalone="no"?>
<!-- Created with Inkscape (http://www.inkscape.org/) -->

<svg
   width="63.003902mm"
   height="72.75mm"
   viewBox="0 0 63.003902 72.75"
   version="1.1"
   id="svg1"
   inkscape:version="1.4.2 (ebf0e940d0, 2025-05-08)"
   sodipodi:docname="neflalabsonly.svg"
   inkscape:export-filename="Pictures/neflalabsonly.svg"
   inkscape:export-xdpi="300"
   inkscape:export-ydpi="300"
   xmlns:inkscape="http://www.inkscape.org/namespaces/inkscape"
   xmlns:sodipodi="http://sodipodi.sourceforge.net/DTD/sodipodi-0.dtd"
   xmlns="http://www.w3.org/2000/svg"
   xmlns:svg="http://www.w3.org/2000/svg">
  <sodipodi:namedview
     id="namedview1"
     pagecolor="#ffffff"
     bordercolor="#000000"
     borderopacity="0.25"
     inkscape:showpageshadow="2"
     inkscape:pageopacity="0.0"
     inkscape:pagecheckerboard="0"
     inkscape:deskcolor="#d1d1d1"
     inkscape:document-units="mm"
     inkscape:zoom="3.1448126"
     inkscape:cx="95.554184"
     inkscape:cy="259.79291"
     inkscape:window-width="1536"
     inkscape:window-height="798"
     inkscape:window-x="0"
     inkscape:window-y="0"
     inkscape:window-maximized="1"
     inkscape:current-layer="layer1">
    <inkscape:page
       x="0"
       y="0"
       width="63.003902"
       height="72.75"
       id="page2"
       margin="0"
       bleed="0" />
  </sodipodi:namedview>
  <defs
     id="defs1" />
  <g
     inkscape:label="Layer 1"
     inkscape:groupmode="layer"
     id="layer1"
     transform="translate(158.64648,-115.86133)">
    <path
       style="baseline-shift:baseline;display:inline;overflow:visible;vector-effect:none;fill:#000000;stroke-dashoffset:36;enable-background:accumulate;stop-color:#000000"
       d="m -127.14453,115.86133 -31.50195,18.1875 v 36.375 l 31.50195,18.1875 31.501952,-18.1875 v -36.375 z m 0,4.79687 27.347655,15.78907 v 31.57812 l -27.347655,15.78906 -27.34766,-15.78906 v -31.57812 z"
       id="path28" />
    <path
       style="fill:#000000;stroke:none;stroke-width:9.87762;stroke-dasharray:none;stroke-dashoffset:36"
       d="m -110.81201,161.66676 -16.33271,9.42967 -10.62772,-6.13593 v 10.3922 l 10.62772,6.13593 25.3327,-14.62586 z"
       id="path3" />
    <path
       style="fill:#000000;stroke:none;stroke-width:9.87762;stroke-dasharray:none;stroke-dashoffset:36"
       d="m -152.47742,144.19871 1e-5,22.66406 8.9998,5.19601 v -10.3922 -12.27186 z"
       id="path2" />
    <path
       style="fill:#000000;stroke:none;stroke-width:9.87762;stroke-dasharray:none;stroke-dashoffset:36"
       d="m -110.81183,132.41503 v 10.39202 5.32161 6.95044 l 8.99981,5.19601 v -22.66406 z"
       id="path1" />
    <path
       style="fill:#000000;stroke:none;stroke-width:9.87762;stroke-dasharray:none;stroke-dashoffset:36"
       d="m -127.14472,122.98518 -25.3327,14.62587 8.99981,5.196 16.33289,-9.42967 10.62772,6.13575 10e-6,-10.39201 z"
       id="path29" />
    <path
       id="path30"
       style="font-size:50.8px;line-height:1.2;font-family:'Bebas Neue';-inkscape-font-specification:'Bebas Neue';text-align:center;letter-spacing:0px;word-spacing:-0.0132292px;text-anchor:middle;fill:#000000;stroke:none;stroke-width:7.91457;stroke-dashoffset:36"
       d="M -140.34165 143.53303 L -140.34165 161.12317 L -137.87876 161.12317 L -137.87876 148.28209 L -137.82863 148.28209 L -134.51152 161.12317 L -134.06142 161.12317 L -131.6719 161.12317 L -131.29724 161.12317 L -131.29724 153.45852 L -127.72899 153.45852 L -127.72899 150.94601 L -131.29724 150.94601 L -131.29724 146.04553 L -126.7492 146.04553 L -126.7492 143.53303 L -131.6719 143.53303 L -134.06142 143.53303 L -134.1348 143.53303 L -134.1348 154.0621 L -134.18492 154.0621 L -136.87365 143.53303 L -140.34165 143.53303 z " />
    <path
       id="path32"
       style="font-size:50.8px;line-height:1.2;font-family:'Bebas Neue';-inkscape-font-specification:'Bebas Neue';text-align:center;letter-spacing:0px;word-spacing:-0.0132292px;text-anchor:middle;fill:#000000;stroke:none;stroke-width:7.91457;stroke-dashoffset:36"
       d="M -125.14413 143.35061 L -125.2139 143.77177 L -127.714 158.78584 L -128.92478 158.78584 L -129.26584 161.12317 L -125.50483 161.12317 L -123.42176 161.12317 L -120.85861 161.12317 L -120.51702 158.78584 L -120.35579 157.68048 L -120.0292 155.29303 L -118.82307 146.59847 L -118.77294 146.59847 L -117.5415 155.29303 L -117.2149 157.68048 L -117.2149 157.63036 L -116.71209 161.12317 L -113.94792 161.12317 L -116.81286 143.53303 L -120.55682 143.53303 L -123.0409 158.78584 L -125.11571 158.78584 L -122.6156 143.77177 L -122.6156 143.35423 L -125.14413 143.35061 z " />
  </g>
</svg>
