<svg xmlns="http://www.w3.org/2000/svg" viewBox="0 0 512 512">
  <defs>
    <linearGradient id="grad1" x1="0%" y1="0%" x2="100%" y2="100%">
      <stop offset="0%" style="stop-color:#3b82f6;stop-opacity:1" />
      <stop offset="100%" style="stop-color:#2563eb;stop-opacity:1" />
    </linearGradient>
  </defs>
  <circle cx="256" cy="256" r="240" fill="url(#grad1)" />
  <path d="M256 80c-97.2 0-176 78.8-176 176s78.8 176 176 176 176-78.8 176-176S353.2 80 256 80zm0 320c-79.4 0-144-64.6-144-144s64.6-144 144-144 144 64.6 144 144-64.6 144-144 144z" fill="#ffffff" opacity="0.2"/>
  <path d="M256 120c-75.1 0-136 60.9-136 136s60.9 136 136 136 136-60.9 136-136-60.9-136-136-136zm0 240c-57.4 0-104-46.6-104-104s46.6-104 104-104 104 46.6 104 104-46.6 104-104 104z" fill="#ffffff"/>
  <path d="M256 160c-53 0-96 43-96 96s43 96 96 96 96-43 96-96-43-96-96-96zm0 160c-35.3 0-64-28.7-64-64s28.7-64 64-64 64 28.7 64 64-28.7 64-64 64z" fill="#ffffff" opacity="0.5"/>
  <circle cx="256" cy="256" r="20" fill="#ffffff"/>
  <path d="M256 256 L350 200" stroke="#ffffff" stroke-width="12" stroke-linecap="round"/>
</svg>
